<?xml version="1.0" encoding="utf-8"?>
<svg  xmlns="http://www.w3.org/2000/svg" xmlns:xlink="http://www.w3.org/1999/xlink" x="0px" y="0px"
	 viewBox="0 0 76.9 35.3" style="enable-background:new 0 0 76.9 35.3;" xml:space="preserve">
<style type="text/css">
	.st0{fill:none;stroke:#000000;stroke-width:4;stroke-miterlimit:10;}
	.st1{fill:none;stroke:#000000;stroke-width:0.8531;}
	.st2{fill:none;stroke:#000000;stroke-width:0.8255;}
</style>
<g>
	<g>
		<path d="M335-325.6c0.1,1.1,0.2,2.4,0.3,3.7c0.1,1.3,0.2,2.6,0.2,4c0.1,1.3,0.1,2.6,0.1,3.9c0,1.3,0,2.5,0,3.6
			c-0.1,1-0.5,1.7-1.2,2.3c-0.8,0.5-1.5,0.8-2.3,0.9c-0.9,0.1-1.7-0.1-2.3-0.6s-1-1.1-1-2.1c0-2.6,0-5.2-0.1-7.7
			c-0.1-2.6-0.3-5.2-0.6-7.9l-7.2-1c-1.3-0.3-2.1-0.9-2.5-1.8c-0.4-0.9-0.5-1.7-0.3-2.5c0.2-0.7,0.7-1.3,1.3-1.8
			c0.6-0.5,1.4-0.7,2.2-0.6c3.2,0.3,6.5,0.6,10.1,0.8c3.6,0.2,7.2,0.3,10.8,0.2c3.7-0.1,7.3-0.3,11-0.7c3.7-0.4,7.2-1,10.7-1.7
			c0.8-0.2,1.6,0,2.3,0.4c0.7,0.5,1.1,1.1,1.4,1.9c0.3,0.8,0.2,1.6-0.2,2.5c-0.4,0.8-1.2,1.4-2.5,1.8c-0.8,0.3-2.1,0.5-3.7,0.8
			c-1.6,0.2-3.4,0.5-5.3,0.8c0.3,2.2,0.5,4.4,0.6,6.7c0.1,2.3,0.1,4.3,0.1,6.2c-0.1,1-0.4,1.7-1.2,2.3c-0.7,0.5-1.5,0.8-2.3,0.9
			c-0.8,0.1-1.6-0.1-2.3-0.6c-0.7-0.4-1-1.1-1-2.1c0-1.9-0.1-3.9-0.2-6c-0.1-2-0.3-4.3-0.6-6.8c-3.1,0.3-5.9,0.5-8.4,0.5
			C338.4-325.4,336.4-325.5,335-325.6z"/>
	</g>
	<g>
		<path d="M358.7-288.9c-0.3,1.9-1.1,3.1-2.6,3.8c-1.5,0.6-3.4,1-5.9,1.2c-2.2,0.1-4.5,0.2-7,0.2c-2.5,0-4.9,0-7.3-0.2
			c-1.1,0-2-0.2-2.9-0.3c-0.8-0.2-1.6-0.5-2.1-0.9c-0.6-0.4-1-1-1.4-1.8c-0.3-0.8-0.6-1.8-0.7-3c-0.2-1.8-0.3-3.4-0.4-5
			c-0.1-1.5,0-3.1,0.1-4.5c0.1-1,0.2-1.8,0.4-2.4c0.2-0.7,0.5-1.2,1-1.6c0.4-0.4,1.1-0.8,1.9-1c0.8-0.2,1.9-0.4,3.3-0.5
			c2.6-0.2,5.1-0.2,7.7-0.2c2.6,0,5.5,0,8.7,0.1c2.9,0.1,4.8,0.6,5.7,1.5c0.9,0.9,1.4,2.4,1.6,4.4c0.1,1.7,0.2,3.4,0.1,5.1
			C359-292.6,358.9-290.8,358.7-288.9z M351.2-291.9c0.1-1.1,0.2-2.1,0.1-3c-0.1-0.9-0.1-1.7-0.2-2.2c-0.1-1.1-0.3-1.8-0.6-2.1
			c-0.3-0.3-1-0.5-2.3-0.6c-1.6-0.1-3-0.1-4.3-0.1c-1.3,0-2.8,0.1-4.2,0.1c-1.3,0.1-2.2,0.4-2.5,1c-0.3,0.5-0.5,1.3-0.5,2.4
			c0,1,0,1.8-0.1,2.4c0,0.6,0,1.2,0.2,1.9c0.1,1,0.5,1.7,1.1,1.9c0.6,0.3,1.6,0.4,2.9,0.5h6.2c1.3,0,2.4-0.2,3-0.5
			C350.6-290.5,351-291,351.2-291.9z"/>
	</g>
</g>
<path class="st0" d="M330.4-369.3c6.6-5.8,16.9-5.9,23.4,0.2c7,6.5,7,17.8,0.7,24.5c-7,7.5-19.8,7.3-26.3-0.6
	C322.4-352.2,323.3-363.1,330.4-369.3z"/>
<g>
	<g>
		<path d="M330.4-351.5c1.1,2.2,2.6,4.5,5,5.6c2.4,1.2,5.4,1.6,8,1.4c5-0.4,9.8-3.7,10.1-9c0.1-1.6-2.4-1.6-2.5,0
			c-0.2,4.2-4.5,6.4-8.3,6.5c-2,0-4.4-0.3-6.2-1.2c-1.9-0.9-3-2.8-3.9-4.6C331.8-354.2,329.6-352.9,330.4-351.5L330.4-351.5z"/>
	</g>
</g>
<g>
	<g>
		<path d="M332.9-362.5c0,0.5,0,0.9,0,1.4c0,0.3,0,0.5,0.2,0.7c0.1,0.2,0.2,0.4,0.4,0.6c0.2,0.2,0.4,0.3,0.6,0.4
			c0.2,0.1,0.5,0.2,0.7,0.2c0.2,0,0.3,0,0.5-0.1c0.3-0.1,0.6-0.2,0.8-0.5c0.1-0.1,0.2-0.3,0.3-0.4c0.2-0.3,0.3-0.6,0.3-0.9
			c0-0.5,0-0.9,0-1.4c0-0.3,0-0.5-0.2-0.7c-0.1-0.2-0.2-0.4-0.4-0.6c-0.2-0.2-0.4-0.3-0.6-0.4c-0.2-0.1-0.5-0.2-0.7-0.2
			c-0.2,0-0.3,0-0.5,0.1c-0.3,0.1-0.6,0.2-0.8,0.5c-0.1,0.1-0.2,0.3-0.3,0.4C333-363.2,332.9-362.9,332.9-362.5L332.9-362.5z"/>
	</g>
</g>
<g>
	<g>
		<path d="M345.8-362.5c0,0.5,0,0.9,0,1.4c0,0.3,0,0.5,0.2,0.7c0.1,0.2,0.2,0.4,0.4,0.6c0.2,0.2,0.4,0.3,0.6,0.4
			c0.2,0.1,0.5,0.2,0.7,0.2c0.2,0,0.3,0,0.5-0.1c0.3-0.1,0.6-0.2,0.8-0.5c0.1-0.1,0.2-0.3,0.3-0.4c0.2-0.3,0.3-0.6,0.3-0.9
			c0-0.5,0-0.9,0-1.4c0-0.3,0-0.5-0.2-0.7c-0.1-0.2-0.2-0.4-0.4-0.6c-0.2-0.2-0.4-0.3-0.6-0.4c-0.2-0.1-0.5-0.2-0.7-0.2
			c-0.2,0-0.3,0-0.5,0.1c-0.3,0.1-0.6,0.2-0.8,0.5c-0.1,0.1-0.2,0.3-0.3,0.4C345.9-363.2,345.8-362.9,345.8-362.5L345.8-362.5z"/>
	</g>
</g>
<g>
	<g>
		<path d="M436.6-532.3c-14.9,14.1-15.9,37.1-8.7,55.3c1.8,4.5,4.2,8.5,8.2,11.4c3.8,2.8,8.4,4.3,12.9,5.4c9.4,2.4,19.4,3,29,1.1
			c9-1.8,17.5-5.8,24.1-12.2c6.2-5.9,10.8-13.8,12.4-22.2c1.8-9.8-1-19.2-5.2-28c-4-8.5-9.1-16.8-18.1-20.6c-4.6-1.9-9.5-2.7-14.5-3
			c-5-0.3-10-0.2-15,0.4c-5,0.6-9.9,1.7-14.6,3.4c-4.3,1.6-8.7,3.5-12,6.7c-1.6,1.5-2.7,3.3-3.5,5.4c-0.8,2.3,2.9,3.3,3.7,1
			c1.3-3.7,5-5.9,8.4-7.5c4.1-2,8.6-3.4,13.1-4.3c4.5-0.9,9.2-1.4,13.8-1.4c4.5,0,9.1,0.2,13.5,1.1c4.3,0.9,8.3,2.5,11.6,5.4
			c3.2,2.8,5.6,6.4,7.7,10.1c4.3,7.8,8.1,16.6,7.9,25.6c-0.4,16.3-13.2,30-28.1,34.8c-8.4,2.7-17.5,3.2-26.2,1.9
			c-4.4-0.7-8.7-1.7-12.9-3.3c-4.1-1.5-7.7-3.9-10.1-7.6c-2.4-3.8-3.8-8.3-4.9-12.6c-1.2-4.7-1.8-9.6-1.8-14.4
			c0.1-8.8,2.6-17.5,7.9-24.6c1.2-1.7,2.6-3.2,4.1-4.6C441.1-531.3,438.4-534,436.6-532.3L436.6-532.3z"/>
	</g>
</g>
<g>
	<g>
		<path d="M451-502.7c-2.3,0-4.6,0-6.9,0c-1,0-2,0.9-1.9,1.9c0,1,0.8,1.9,1.9,1.9c2.3,0,4.6,0,6.9,0c1,0,2-0.9,1.9-1.9
			C452.8-501.8,452.1-502.7,451-502.7L451-502.7z"/>
	</g>
</g>
<g>
	<g>
		<path d="M451-498.3c-2,0.1-4.1,0.2-6.1,0.3c-1,0.1-2,0.8-1.9,1.9c0,1,0.8,2,1.9,1.9c2-0.1,4.1-0.2,6.1-0.3c1-0.1,2-0.8,1.9-1.9
			C452.8-497.4,452-498.4,451-498.3L451-498.3z"/>
	</g>
</g>
<g>
	<g>
		<path d="M483.8-501.6c3.5,0.2,7.1-0.1,10.6-0.7c1-0.2,1.6-1.4,1.3-2.4c-0.3-1.1-1.3-1.5-2.4-1.3c-0.4,0.1-0.8,0.1-1.2,0.2
			c-0.1,0-0.7,0.1-0.4,0.1c-0.2,0-0.4,0-0.6,0.1c-0.8,0.1-1.6,0.2-2.4,0.2c-1.6,0.1-3.3,0.1-4.9,0c-1,0-2,0.9-1.9,1.9
			C481.9-502.4,482.7-501.6,483.8-501.6L483.8-501.6z"/>
	</g>
</g>
<g>
	<g>
		<path d="M483.2-496.7c4.1,0.7,8.2,0.9,12.3,0.5c1-0.1,2-0.8,1.9-1.9c0-1-0.8-2-1.9-1.9c-1.9,0.2-3.9,0.2-5.8,0.2
			c-1.9-0.1-3.7-0.3-5.5-0.6c-1-0.2-2.1,0.3-2.4,1.3C481.7-498.2,482.2-496.9,483.2-496.7L483.2-496.7z"/>
	</g>
</g>
<g>
	<g>
		<path d="M459.3-475.8c1.8,0,3.6-0.3,5.3-0.9c0.9-0.3,1.7-0.7,2.5-1.1c0.7-0.4,1.4-1,2.1-1.2c0.8-0.3,1.6,0,2.3,0.1
			c1,0.2,1.9,0.3,2.9,0.5c1.9,0.3,3.9,0.6,5.8,0.9c1,0.2,2.1-0.3,2.4-1.3c0.3-0.9-0.3-2.2-1.3-2.4c-2.1-0.3-4.1-0.7-6.2-1
			c-1.9-0.3-3.9-0.9-5.9-0.7c-1.8,0.2-3.1,1.4-4.7,2.1c-1.7,0.7-3.4,1.1-5.2,1.1C456.8-479.6,456.8-475.7,459.3-475.8L459.3-475.8z"
			/>
	</g>
</g>
<g>
	<g>
		<path d="M432.5-531.1c-3,4.1-5.1,8.8-6.1,13.8c-0.4,1.8,1.8,3.3,3.2,1.9c1.3-1.3,2.6-2.7,3.9-4c0.6-0.6,1.2-1.3,1.9-1.9
			c0.3-0.4,0.7-0.7,1-1.1c0.2-0.2,0.9-0.6,0.5-0.7c-0.3-0.1-0.6-0.2-1-0.3c0.5,0.2,0.8,1.5,1.1,2.1c0.5,1,0.9,2,1.4,2.9
			c0.3,0.7,1.4,1.1,2.2,0.9c1.4-0.5,2.4-1.3,3.2-2.5c0.4-0.6,1.4-2.8,2.4-2.6c0.6,0.1,1.3,1.4,1.7,1.9c0.8,0.9,1.8,1.6,3.1,1.6
			c1.4,0,2.4-0.9,3.2-2c0.1-0.1,0.6-0.7,0.3-0.6c-0.2,0.1-0.2-0.3,0.1,0.1c0.1,0.1,0.3,0.2,0.4,0.3c1.9,1.3,3.5,3.3,6,2.5
			c1.2-0.3,2-1.3,2.7-2.3c0.4-0.6,0.8-2.1,1.5-2.3c1.2-0.3,2.3,1.4,3.2,2c1.4,0.9,2.9,0.6,4-0.6c0.7-0.8,0.9-1.8,2.1-2
			c1.4-0.2,2.8,0.8,3.8,1.7c0.7,0.6,1.3,1.4,2.3,1.4c0.6,0,1.3-0.3,1.8-0.7c0.5-0.4,0.8-1,1-1.6c0.1-0.2,0.1-0.3,0.2-0.5
			c0-0.1,0-0.2,0.1-0.3c0.2-0.4,0.1-0.3-0.4,0.1c0,0.1,2.2,0.7,2.5,0.7c0.9,0.3,1.7,0.7,2.5,1.2c0.8,0.5,1.5,0.9,2.5,0.6
			c0.9-0.3,1.5-1,1.8-1.9c0.1-0.2,0.1-0.8,0.3-0.9c0.3-0.2,1,0.1,1.2,0.2c1.6,0.7,2.8,2,4.6,2.2c1.1,0.2,1.9-0.3,2.4-1.3
			c0.3-0.6,0.5-1.3,0.8-1.9c-0.8,0.4-1.6,0.9-2.4,1.3c1.3,0.2,2.6,0.6,3.9,1.2c0.9,0.4,2.1,0.3,2.6-0.7c0.5-0.8,0.2-2.2-0.7-2.6
			c-1.5-0.7-3.1-1.3-4.8-1.5c-1.1-0.2-1.9,0.3-2.4,1.3c-0.3,0.6-0.5,1.3-0.8,1.9c0.8-0.4,1.6-0.9,2.4-1.3c-1.3-0.2-2.2-1-3.3-1.7
			c-1-0.6-2.1-0.9-3.2-0.9c-1.1,0-2.2,0.4-3,1.1c-0.4,0.4-0.7,1-0.9,1.5c-0.1,0.2-0.1,0.4-0.1,0.5c-0.1,0.7-0.3,0.1,0.5-0.2
			c0.5,0.1,1,0.1,1.5,0.2c-2.1-1.3-4.9-2.8-7.5-2.9c-1.2-0.1-2.3,0.4-2.9,1.4c-0.3,0.4-0.4,0.8-0.6,1.2c-0.2,0.6-0.3,0.4,0.1,0.3
			c0.6,0.2,1.2,0.3,1.9,0.5c-1.7-1.6-3.5-3.2-5.9-3.6c-2.1-0.3-4.3,0.3-5.6,2c-0.2,0.3-0.7,0.8-0.7,1.1c-0.1,0.3-0.7,0.3,0.3,0.2
			c0.8-0.1,0.5,0,0.1-0.4c-0.7-0.9-2.1-1.6-3.1-2c-2.1-0.7-4.2,0.1-5.5,1.9c-0.4,0.6-0.7,1.3-1.2,2c-0.3,0.5-0.3,0.6-0.8,0.5
			c-1.2-0.5-2-1.8-3.2-2.4c-1.7-0.9-3.5-0.6-4.7,0.9c-0.2,0.2-0.8,0.9-0.8,1.1c0,0-0.1,0.1-0.1,0.2c-0.1,0.3,0.4-0.2,0.3,0
			c0,0-0.2-0.2-0.4-0.4c-0.3-0.3-0.5-0.6-0.8-1c-1.5-1.8-3.6-2.8-5.9-1.6c-1.1,0.6-1.9,1.5-2.6,2.5c-0.5,0.7-1,1.9-1.9,2.2
			c0.7,0.3,1.4,0.6,2.2,0.9c-1.1-2.4-2.9-8.6-6.7-6.1c-1.5,1-2.8,2.7-4,4.1c-1.4,1.4-2.7,2.8-4.1,4.2c1.1,0.6,2.1,1.2,3.2,1.9
			c1-4.7,2.9-9,5.8-12.9c0.6-0.8,0.1-2.1-0.7-2.6C434.1-532.4,433.1-531.9,432.5-531.1L432.5-531.1z"/>
	</g>
</g>
<g>
	<g>
		<path d="M440.4-506c4.4,0,8.8,0,13.3,0c1,0,2.2-0.2,3.1,0.1c1.1,0.3,1.3,1.8,1.5,2.8c0.6,2,1,4,1.4,6.1c0.2,1.1,0.3,2.1,0.4,3.2
			c0.1,1,0.3,2.2,0.1,3.2c-0.1,0.7-0.6,0.6-1.3,0.7c-0.6,0-1.1,0-1.7,0.1c-1.1,0-2.3,0.1-3.4,0.1c-2.2,0.1-4.4,0.2-6.6,0.3
			c-1.1,0-2.1,0.1-3.2,0.1c-0.8,0-1-0.1-1.4-0.8c-0.2-0.5-0.4-1.1-0.5-1.6c-1.4-4.6-2.2-9.5-2.2-14.3c0-0.8-1.3-0.8-1.3,0
			c0.1,5,0.8,10,2.3,14.8c0.3,0.8,0.5,1.8,1,2.5c0.7,0.8,1.6,0.7,2.6,0.7c2.7-0.1,5.4-0.2,8.1-0.4c1.3-0.1,2.5-0.1,3.8-0.2
			c1.2-0.1,2.6,0.1,3.7-0.2c0.7-0.2,1.1-0.8,1.1-1.5c0.1-1.3,0-2.7-0.2-3.9c-0.2-2.5-0.6-4.9-1.2-7.3c-0.3-1.2-0.6-2.3-1-3.5
			c-0.3-0.8-0.7-1.6-1.5-2c-1-0.5-2.4-0.3-3.5-0.3c-1.4,0-2.9,0-4.3,0c-3.1,0-6.3,0-9.4,0C439.6-507.3,439.6-506,440.4-506
			L440.4-506z"/>
	</g>
</g>
<g>
	<g>
		<path d="M461.3-497.8c4.2,0.2,8.5,0.2,12.7,0.1c0.8,0,0.8-1.3,0-1.3c-4.2,0.1-8.5,0.1-12.7-0.1
			C460.5-499.1,460.5-497.9,461.3-497.8L461.3-497.8z"/>
	</g>
</g>
<g>
	<g>
		<path d="M472.9-508.1c-0.2,3.1,0,6.1,0.5,9.2c0.2,1.4,0.5,2.8,0.9,4.2c0.3,1,0.6,2.2,1.5,2.8c0.9,0.6,2.1,0.7,3.2,0.8
			c1.7,0.2,3.3,0.3,5,0.3c3,0.1,6.1,0.1,9.1-0.1c1.5-0.1,3-0.2,4.5-0.4c1.4-0.2,3-0.3,4.4-0.7c0.8-0.2,1.3-0.7,1.4-1.6
			c0.2-1.4-0.1-3-0.3-4.4c-0.3-2.8-0.6-5.9-1.6-8.5c-0.9-2.3-3.4-2-5.5-2c-7.3,0-14.6,0.1-21.9,0.1c-0.8,0-0.8,1.3,0,1.3
			c5.3,0,10.6-0.1,15.9-0.1c2.6,0,5.2-0.1,7.8,0c1.4,0,2.3,0.4,2.6,1.8c0.3,1.3,0.6,2.6,0.8,3.9c0.2,1.3,0.4,2.5,0.5,3.8
			c0.1,0.6,0.1,1.3,0.2,1.9c0,0.5,0.3,1.5,0.1,2c-0.4,1.2-3,1.1-4.1,1.3c-1.3,0.2-2.7,0.3-4.1,0.4c-5.1,0.4-10.3,0.4-15.3-0.2
			c-0.6-0.1-1.3-0.1-1.8-0.3c-1-0.4-1.2-1.4-1.5-2.3c-0.4-1.3-0.7-2.6-0.9-3.9c-0.5-3-0.6-6-0.5-9.1
			C474.2-508.9,472.9-508.9,472.9-508.1L472.9-508.1z"/>
	</g>
</g>
<path class="st1" d="M501.9-185.2v5c0,0.3-0.1,0.6-0.2,0.8s-0.3,0.4-0.5,0.5c-0.2,0.1-0.4,0.2-0.7,0.3c-0.2,0.1-0.5,0.1-0.7,0.1
	s-0.5,0-0.7-0.1c-0.2-0.1-0.5-0.2-0.6-0.3c-0.2-0.1-0.3-0.3-0.5-0.5c-0.1-0.2-0.2-0.5-0.2-0.8v-5l-5.8-8c-0.3-0.3-0.3-0.7-0.2-1.1
	c0.1-0.4,0.4-0.8,0.8-1c0.2-0.1,0.4-0.2,0.7-0.3c0.2-0.1,0.5-0.1,0.7-0.1c0.2,0,0.4,0.1,0.6,0.2c0.2,0.1,0.4,0.2,0.5,0.4l4.8,6.8
	l4.7-6.7c0.3-0.4,0.6-0.6,1.1-0.6c0.5,0,0.9,0.1,1.4,0.3c0.2,0.1,0.4,0.2,0.5,0.4c0.2,0.2,0.3,0.3,0.4,0.5c0.1,0.2,0.1,0.4,0.1,0.6
	c0,0.2-0.1,0.4-0.3,0.6L501.9-185.2z"/>
<path d="M509.2-192c0-0.5,0.2-0.9,0.6-1.2c0.4-0.3,0.9-0.4,1.4-0.4c0.3,0,0.5,0,0.7,0.1c0.2,0.1,0.5,0.2,0.6,0.3
	c0.2,0.1,0.3,0.3,0.4,0.5c0.1,0.2,0.2,0.4,0.2,0.7v9.5c0,0.8,0.3,1.4,0.9,1.8s1.4,0.6,2.5,0.6c1,0,1.8-0.2,2.4-0.6
	c0.6-0.4,0.9-1,0.9-1.8v-9.5c0-0.5,0.2-0.9,0.6-1.2c0.4-0.3,0.9-0.4,1.4-0.4c0.3,0,0.5,0,0.7,0.1c0.2,0.1,0.4,0.2,0.6,0.3
	c0.2,0.1,0.3,0.3,0.5,0.5c0.1,0.2,0.2,0.4,0.2,0.7v9.5c0,0.9-0.2,1.7-0.6,2.3c-0.4,0.6-0.9,1.1-1.6,1.5c-0.7,0.4-1.4,0.7-2.3,0.9
	s-1.8,0.3-2.8,0.3c-1,0-2-0.1-2.9-0.3c-0.9-0.2-1.7-0.5-2.4-0.9c-0.7-0.4-1.2-0.9-1.6-1.5c-0.4-0.6-0.6-1.4-0.6-2.3V-192z"/>
<path class="st2" d="M541.1-187.9c-0.5,0.7-1.1,1.4-1.6,2.2c-0.6,0.8-1.1,1.6-1.6,2.2c-0.2,0.3-0.5,0.4-0.7,0.5
	c-0.3,0.1-0.5,0.1-0.8,0.1c-0.3,0-0.5,0-0.8-0.1c-0.3-0.1-0.5-0.3-0.7-0.5l-3.2-4.6v8.7c0,0.6-0.2,1-0.6,1.2
	c-0.4,0.3-0.9,0.4-1.4,0.4c-0.3,0-0.5,0-0.8-0.1c-0.2-0.1-0.5-0.2-0.6-0.3c-0.2-0.1-0.3-0.3-0.5-0.5s-0.2-0.4-0.2-0.7V-192
	c0-0.5,0.2-0.9,0.6-1.2c0.4-0.3,0.9-0.4,1.4-0.4c0.3,0,0.6,0,0.9,0.1c0.3,0,0.5,0.1,0.7,0.2c0.2,0.1,0.4,0.2,0.6,0.4
	c0.2,0.2,0.4,0.4,0.6,0.7l3.8,5.3l4-5.3c0.4-0.5,0.8-0.9,1.2-1.1s0.9-0.3,1.6-0.3c0.6,0,1,0.1,1.4,0.4c0.4,0.3,0.6,0.7,0.6,1.2v12.7
	c0,0.3-0.1,0.5-0.2,0.7s-0.3,0.4-0.5,0.5c-0.2,0.1-0.4,0.2-0.6,0.3c-0.2,0.1-0.5,0.1-0.7,0.1s-0.5,0-0.7-0.1
	c-0.2-0.1-0.5-0.2-0.6-0.3c-0.2-0.1-0.3-0.3-0.5-0.5s-0.2-0.4-0.2-0.7V-187.9z"/>
<path d="M548.7-192c0-0.5,0.2-0.9,0.6-1.2c0.4-0.3,0.9-0.4,1.5-0.4c0.3,0,0.5,0,0.7,0.1c0.2,0.1,0.5,0.2,0.6,0.3
	c0.2,0.1,0.3,0.3,0.4,0.5c0.1,0.2,0.2,0.4,0.2,0.7v12.7c0,0.3-0.1,0.5-0.2,0.7s-0.3,0.4-0.4,0.5c-0.2,0.1-0.4,0.2-0.6,0.3
	c-0.2,0.1-0.5,0.1-0.7,0.1c-0.3,0-0.5,0-0.8-0.1c-0.3-0.1-0.5-0.2-0.7-0.3c-0.2-0.1-0.4-0.3-0.5-0.5c-0.1-0.2-0.2-0.4-0.2-0.7V-192z
	"/>
<path d="M393.1-115.1v6.8c0,0.4-0.1,0.8-0.2,1.1s-0.3,0.5-0.5,0.7c-0.2,0.2-0.4,0.3-0.7,0.4c-0.2,0.1-0.5,0.1-0.7,0.1
	s-0.5,0-0.7-0.1c-0.2-0.1-0.5-0.2-0.6-0.4c-0.2-0.2-0.3-0.4-0.5-0.7c-0.1-0.3-0.2-0.7-0.2-1.1v-6.8l-5.8-10.9
	c-0.3-0.5-0.3-1-0.2-1.6c0.1-0.6,0.4-1,0.8-1.4c0.2-0.2,0.4-0.3,0.7-0.4c0.2-0.1,0.5-0.1,0.7-0.1c0.2,0,0.4,0.1,0.6,0.2
	c0.2,0.1,0.4,0.3,0.5,0.6l4.8,9.4l4.7-9.2c0.3-0.5,0.6-0.8,1.1-0.9c0.5,0,0.9,0.1,1.4,0.4c0.2,0.1,0.4,0.3,0.5,0.5
	c0.2,0.2,0.3,0.5,0.4,0.7c0.1,0.3,0.1,0.5,0.1,0.8c0,0.3-0.1,0.6-0.3,0.9L393.1-115.1z"/>
<path d="M439.4-120.5c-0.5,1-1.1,2.2-1.6,3.4c-0.6,1.2-1.1,2.4-1.6,3.4c-0.2,0.4-0.5,0.7-0.7,0.8s-0.5,0.2-0.8,0.2
	c-0.3,0-0.5-0.1-0.8-0.2c-0.3-0.1-0.5-0.4-0.7-0.8l-3.2-6.9v13.2c0,0.9-0.2,1.5-0.6,1.9c-0.4,0.4-0.9,0.6-1.4,0.6
	c-0.3,0-0.5,0-0.8-0.1c-0.2-0.1-0.5-0.2-0.6-0.4c-0.2-0.2-0.3-0.5-0.5-0.8c-0.1-0.3-0.2-0.7-0.2-1.1v-19.3c0-0.8,0.2-1.4,0.6-1.8
	c0.4-0.4,0.9-0.6,1.4-0.6c0.3,0,0.6,0,0.9,0.1c0.3,0.1,0.5,0.2,0.7,0.3c0.2,0.2,0.4,0.4,0.6,0.7c0.2,0.3,0.4,0.6,0.6,1.1l3.8,8.1
	l4-8.1c0.4-0.8,0.8-1.3,1.2-1.6s0.9-0.5,1.6-0.5c0.6,0,1,0.2,1.4,0.6c0.4,0.4,0.6,1,0.6,1.8v19.3c0,0.4-0.1,0.8-0.2,1.1
	c-0.1,0.3-0.3,0.6-0.5,0.8c-0.2,0.2-0.4,0.4-0.6,0.4c-0.2,0.1-0.5,0.1-0.7,0.1s-0.5,0-0.7-0.1c-0.2-0.1-0.5-0.2-0.6-0.4
	c-0.2-0.2-0.3-0.5-0.5-0.8c-0.1-0.3-0.2-0.7-0.2-1.1V-120.5z"/>
<g>
	<path d="M415.5-120.9c3.2,0,3.2-5,0-5C412.2-125.9,412.2-120.9,415.5-120.9L415.5-120.9z"/>
</g>
<g>
	<path d="M406.9-120.6c3.2,0,3.2-5,0-5C403.7-125.6,403.7-120.6,406.9-120.6L406.9-120.6z"/>
</g>
<text transform="matrix(1 0 0 1 410.6893 -214.2461)" style="font-family:'Cafe24Ssurround'; font-size:12px;">You</text>
<text transform="matrix(1 0 0 1 453.3015 -213.5114)" style="font-family:'Cafe24Ssurround'; font-size:12px;">Me</text>
<text transform="matrix(1 0 0 1 438.5468 -214.0627)" style="font-family:'GmarketSansBold-KSCpc-EUC-H'; font-size:12px;">&amp;</text>
<g>
	<path d="M401.3-118.1c-1.9,4.6,0.2,10.1,4.4,12.6c4.3,2.5,11.1,2.1,13.7-2.6c1.5-2.7,2-6.1,1.8-9.1c-0.1-1.3-1.1-2.6-2.5-2.5
		c-1.3,0.1-2.6,1.1-2.5,2.5c0,0.7,0,1.5,0,2.2c-0.1,0.8,0,0.7-0.2,1.5c-0.1,0.6-0.3,1.2-0.5,1.8c-0.1,0.2-0.1,0.3-0.2,0.5
		c-0.1,0.3-0.1,0.3,0,0.1c-0.1,0.3-0.3,0.6-0.5,0.9c0.2-0.3-0.2,0.2-0.2,0.2c-0.2,0.2-0.2,0.2,0,0.1c-0.1,0.1-0.3,0.2-0.4,0.3
		c-0.1,0.1-0.9,0.4-0.5,0.3c-0.2,0.1-0.4,0.2-0.7,0.2c-0.3,0.1-0.6,0.1-0.9,0.2c0.6-0.1-0.3,0-0.4,0c-0.2,0-0.4,0-0.7,0
		c-0.1,0-1-0.1-0.4,0c-0.5-0.1-1-0.2-1.5-0.4c-0.3-0.1-0.3-0.1,0,0c-0.1-0.1-0.3-0.1-0.4-0.2c-0.3-0.1-0.5-0.3-0.8-0.5
		c-0.4-0.3,0.2,0.2-0.2-0.1c-0.2-0.2-0.4-0.4-0.6-0.6c-0.1-0.1-0.2-0.2-0.3-0.3c0.2,0.2,0.2,0.2,0,0c-0.1-0.2-0.2-0.4-0.3-0.6
		c-0.1-0.1-0.4-0.9-0.2-0.4c-0.1-0.3-0.2-0.5-0.3-0.8c-0.1-0.2-0.1-0.4-0.2-0.6c0-0.3-0.1-0.3,0,0c0-0.1,0-0.3,0-0.4
		c0-0.3,0-0.5,0-0.8c0-0.1,0.1-0.9,0-0.3c0.1-0.6,0.3-1.1,0.5-1.7c0.5-1.2-0.5-2.8-1.7-3.1C402.9-120.2,401.8-119.4,401.3-118.1
		L401.3-118.1z"/>
</g>
<g>
	<path d="M448.2-127.8c0,6.6,0,13.2,0,19.8c0,3.2,5,3.2,5,0c0-6.6,0-13.2,0-19.8C453.2-131,448.2-131,448.2-127.8L448.2-127.8z"/>
</g>
<g>
	<g>
		<path d="M36.1,17.2c3.2,0,3.2-5,0-5C32.9,12.2,32.9,17.2,36.1,17.2L36.1,17.2z"/>
	</g>
	<g>
		<path d="M27.6,17.5c3.2,0,3.2-5,0-5C24.3,12.5,24.3,17.5,27.6,17.5L27.6,17.5z"/>
	</g>
	<g>
		<path d="M21.9,20c-1.9,4.6,0.2,10.1,4.4,12.6c4.3,2.5,11.1,2.1,13.7-2.6c1.5-2.7,2-6.1,1.8-9.1c-0.1-1.3-1.1-2.6-2.5-2.5
			c-1.3,0.1-2.6,1.1-2.5,2.5c0,0.7,0,1.5,0,2.2c-0.1,0.8,0,0.7-0.2,1.5c-0.1,0.6-0.3,1.2-0.5,1.8c-0.1,0.2-0.1,0.3-0.2,0.5
			c-0.1,0.3-0.1,0.3,0,0.1c-0.1,0.3-0.3,0.6-0.5,0.9c0.2-0.3-0.2,0.2-0.2,0.2c-0.2,0.2-0.2,0.2,0,0.1c-0.1,0.1-0.3,0.2-0.4,0.3
			c-0.1,0.1-0.9,0.4-0.5,0.3c-0.2,0.1-0.4,0.2-0.7,0.2C33.3,29,33,29,32.7,29.1c0.6-0.1-0.3,0-0.4,0c-0.2,0-0.4,0-0.7,0
			c-0.1,0-1-0.1-0.4,0c-0.5-0.1-1-0.2-1.5-0.4c-0.3-0.1-0.3-0.1,0,0c-0.1-0.1-0.3-0.1-0.4-0.2c-0.3-0.1-0.5-0.3-0.8-0.5
			c-0.4-0.3,0.2,0.2-0.2-0.1c-0.2-0.2-0.4-0.4-0.6-0.6c-0.1-0.1-0.2-0.2-0.3-0.3c0.2,0.2,0.2,0.2,0,0c-0.1-0.2-0.2-0.4-0.3-0.6
			c-0.1-0.1-0.4-0.9-0.2-0.4c-0.1-0.3-0.2-0.5-0.3-0.8c-0.1-0.2-0.1-0.4-0.2-0.6c0-0.3-0.1-0.3,0,0c0-0.1,0-0.3,0-0.4
			c0-0.3,0-0.5,0-0.8c0-0.1,0.1-0.9,0-0.3c0.1-0.6,0.3-1.1,0.5-1.7c0.5-1.2-0.5-2.8-1.7-3.1C23.5,17.9,22.4,18.7,21.9,20L21.9,20z"
			/>
	</g>
	<g>
		<path d="M0.7,6.3c1.6,2,3.2,4.2,4.7,6.4C6.2,13.9,7,15.2,8,16.2c1.3,1.1,3,1.6,4.6,1.1c1.6-0.5,2.4-1.9,3.3-3.2
			c0.7-1.1,1.4-2.2,2.1-3.3c1.4-2.4,2.5-5,3.4-7.6c0.4-1.2-0.5-2.8-1.7-3.1c-1.4-0.3-2.6,0.4-3.1,1.7c-0.7,2.1-1.5,3.8-2.5,5.8
			c-0.6,1-1.1,2-1.8,3c-0.3,0.4-0.6,0.9-0.9,1.3c-0.2,0.2-0.3,0.5-0.5,0.7c-0.1,0.2-0.1,0.2,0,0c-0.2,0.2-0.2,0.2,0.1,0
			c0.3-0.1,0.3-0.1,0.6-0.1c-0.3-0.1-0.3-0.1-0.1,0c-0.1,0-0.1-0.1-0.2-0.1c0.2,0.2-0.3-0.3-0.3-0.3c0.2,0.2-0.2-0.4-0.2-0.4
			c-0.7-1-1.3-1.9-2-2.9c-1.5-2.1-3-4.1-4.5-6c-0.8-1.1-2.7-0.9-3.5,0C-0.3,3.8-0.1,5.3,0.7,6.3L0.7,6.3z"/>
	</g>
	<g>
		<path d="M8.5,15.9c1.2,5.6,2.1,11.3,2.7,17c0.1,1.3,1.1,2.5,2.5,2.5c1.3,0,2.6-1.1,2.5-2.5c-0.6-6.1-1.5-12.3-2.8-18.3
			c-0.3-1.3-1.8-2.1-3.1-1.7C8.9,13.2,8.2,14.5,8.5,15.9L8.5,15.9z"/>
	</g>
	<g>
		<path d="M45.9,13.5c0.6,5.3,0.7,10.6,0.4,15.9c-0.1,1.3,1.2,2.6,2.5,2.5c1.4-0.1,2.4-1.1,2.5-2.5c0.3-5.3,0.1-10.6-0.4-15.9
			c-0.1-1.3-1.1-2.6-2.5-2.5C47.1,11,45.7,12.1,45.9,13.5L45.9,13.5z"/>
	</g>
	<g>
		<path d="M46.6,14c0.8,2.2,1.9,4.3,3.3,6.2c1.5,2,3.6,5.1,6.5,4.2c1.2-0.4,2.3-1.2,3.2-2c0.8-0.6,1.5-1.4,2.2-2.2
			c0.8-0.9,1.4-1.9,2-2.9c0.2-0.4,0.4-0.9,0.7-1.4c0.1-0.2,0.2-0.4,0.3-0.5c0.1-0.1,0.1-0.1,0,0c0.2-0.2,0.2-0.2,0-0.1
			c-1.2-0.5-2.4-1-3.7-1.5c1.3,5.4,1.9,10.8,1.7,16.4c0,1.4,1.2,2.5,2.5,2.5c1.4,0,2.5-1.1,2.5-2.5c0.2-6-0.5-11.9-1.9-17.7
			c-0.4-1.5-2.4-2.4-3.7-1.5c-0.9,0.6-1.6,1.4-2.1,2.4c-0.4,0.8-0.7,1.5-1.2,2.3c-0.5,0.8-0.7,1.1-1.4,1.8c-0.6,0.7-1.2,1.1-1.7,1.5
			c-0.2,0.2-1,0.5-1.1,0.7c0,0,1.4,0,1.4,0.1c0-0.1-0.5-0.5-0.6-0.6c-0.3-0.3-0.6-0.7-0.9-1.1c-0.3-0.4-0.3-0.4-0.6-0.7
			c-1.1-1.5-2-3.2-2.6-4.7c-0.5-1.3-1.7-2.1-3.1-1.7C47.1,11.2,46.1,12.7,46.6,14L46.6,14z"/>
	</g>
	<g>
		<path d="M69.1,7.4c2.3,7.2,3.2,14.6,2.6,22.1c-0.1,1.3,1.2,2.5,2.5,2.5c1.4,0,2.4-1.1,2.5-2.5c0.6-7.9-0.3-15.9-2.8-23.4
			C72.9,3,68.1,4.3,69.1,7.4L69.1,7.4z"/>
	</g>
</g>
</svg>
