<?xml version="1.0" encoding="utf-8"?>
<svg  xmlns="http://www.w3.org/2000/svg" xmlns:xlink="http://www.w3.org/1999/xlink" x="0px" y="0px"
	 viewBox="0 0 20.6 21.9" style="enable-background:new 0 0 20.6 21.9;" xml:space="preserve">
<style type="text/css">
	.st0{fill:none;stroke:#000000;stroke-width:4;stroke-miterlimit:10;}
	.st1{fill:none;stroke:#000000;stroke-width:0.8531;}
	.st2{fill:none;stroke:#000000;stroke-width:0.8255;}
</style>
<g>
	<g>
		<path d="M278.6-285.2c0.1,1.1,0.2,2.4,0.3,3.7c0.1,1.3,0.2,2.6,0.2,4c0.1,1.3,0.1,2.6,0.1,3.9c0,1.3,0,2.5,0,3.6
			c-0.1,1-0.5,1.7-1.2,2.3c-0.8,0.5-1.5,0.8-2.3,0.9c-0.9,0.1-1.7-0.1-2.3-0.6s-1-1.1-1-2.1c0-2.6,0-5.2-0.1-7.7
			c-0.1-2.6-0.3-5.2-0.6-7.9l-7.2-1c-1.3-0.3-2.1-0.9-2.5-1.8c-0.4-0.9-0.5-1.7-0.3-2.5c0.2-0.7,0.7-1.3,1.3-1.8
			c0.6-0.5,1.4-0.7,2.2-0.6c3.2,0.3,6.5,0.6,10.1,0.8c3.6,0.2,7.2,0.3,10.8,0.2c3.7-0.1,7.3-0.3,11-0.7c3.7-0.4,7.2-1,10.7-1.7
			c0.8-0.2,1.6,0,2.3,0.4c0.7,0.5,1.1,1.1,1.4,1.9c0.3,0.8,0.2,1.6-0.2,2.5c-0.4,0.8-1.2,1.4-2.5,1.8c-0.8,0.3-2.1,0.5-3.7,0.8
			c-1.6,0.2-3.4,0.5-5.3,0.8c0.3,2.2,0.5,4.4,0.6,6.7c0.1,2.3,0.1,4.3,0.1,6.2c-0.1,1-0.4,1.7-1.2,2.3c-0.7,0.5-1.5,0.8-2.3,0.9
			c-0.8,0.1-1.6-0.1-2.3-0.6c-0.7-0.4-1-1.1-1-2.1c0-1.9-0.1-3.9-0.2-6c-0.1-2-0.3-4.3-0.6-6.8c-3.1,0.3-5.9,0.5-8.4,0.5
			C282-285.1,280-285.1,278.6-285.2z"/>
	</g>
	<g>
		<path d="M302.3-248.6c-0.3,1.9-1.1,3.1-2.6,3.8c-1.5,0.6-3.4,1-5.9,1.2c-2.2,0.1-4.5,0.2-7,0.2c-2.5,0-4.9,0-7.3-0.2
			c-1.1,0-2-0.2-2.9-0.3c-0.8-0.2-1.6-0.5-2.1-0.9c-0.6-0.4-1-1-1.4-1.8c-0.3-0.8-0.6-1.8-0.7-3c-0.2-1.8-0.3-3.4-0.4-5
			c-0.1-1.5,0-3.1,0.1-4.5c0.1-1,0.2-1.8,0.4-2.4c0.2-0.7,0.5-1.2,1-1.6c0.4-0.4,1.1-0.8,1.9-1c0.8-0.2,1.9-0.4,3.3-0.5
			c2.6-0.2,5.1-0.2,7.7-0.2c2.6,0,5.5,0,8.7,0.1c2.9,0.1,4.8,0.6,5.7,1.5c0.9,0.9,1.4,2.4,1.6,4.4c0.1,1.7,0.2,3.4,0.1,5.1
			C302.6-252.2,302.5-250.4,302.3-248.6z M294.7-251.5c0.1-1.1,0.2-2.1,0.1-3c-0.1-0.9-0.1-1.7-0.2-2.2c-0.1-1.1-0.3-1.8-0.6-2.1
			c-0.3-0.3-1-0.5-2.3-0.6c-1.6-0.1-3-0.1-4.3-0.1c-1.3,0-2.8,0.1-4.2,0.1c-1.3,0.1-2.2,0.4-2.5,1c-0.3,0.5-0.5,1.3-0.5,2.4
			c0,1,0,1.8-0.1,2.4c0,0.6,0,1.2,0.2,1.9c0.1,1,0.5,1.7,1.1,1.9c0.6,0.3,1.6,0.4,2.9,0.5h6.2c1.3,0,2.4-0.2,3-0.5
			C294.2-250.1,294.6-250.7,294.7-251.5z"/>
	</g>
</g>
<path class="st0" d="M273.9-328.9c6.6-5.8,16.9-5.9,23.4,0.2c7,6.5,7,17.8,0.7,24.5c-7,7.5-19.8,7.3-26.3-0.6
	C266-311.8,266.9-322.8,273.9-328.9z"/>
<g>
	<g>
		<path d="M274-311.1c1.1,2.2,2.6,4.5,5,5.6c2.4,1.2,5.4,1.6,8,1.4c5-0.4,9.8-3.7,10.1-9c0.1-1.6-2.4-1.6-2.5,0
			c-0.2,4.2-4.5,6.4-8.3,6.5c-2,0-4.4-0.3-6.2-1.2c-1.9-0.9-3-2.8-3.9-4.6C275.4-313.8,273.2-312.5,274-311.1L274-311.1z"/>
	</g>
</g>
<g>
	<g>
		<path d="M276.5-322.2c0,0.5,0,0.9,0,1.4c0,0.3,0,0.5,0.2,0.7c0.1,0.2,0.2,0.4,0.4,0.6c0.2,0.2,0.4,0.3,0.6,0.4
			c0.2,0.1,0.5,0.2,0.7,0.2c0.2,0,0.3,0,0.5-0.1c0.3-0.1,0.6-0.2,0.8-0.5c0.1-0.1,0.2-0.3,0.3-0.4c0.2-0.3,0.3-0.6,0.3-0.9
			c0-0.5,0-0.9,0-1.4c0-0.3,0-0.5-0.2-0.7c-0.1-0.2-0.2-0.4-0.4-0.6c-0.2-0.2-0.4-0.3-0.6-0.4c-0.2-0.1-0.5-0.2-0.7-0.2
			c-0.2,0-0.3,0-0.5,0.1c-0.3,0.1-0.6,0.2-0.8,0.5c-0.1,0.1-0.2,0.3-0.3,0.4C276.6-322.8,276.5-322.5,276.5-322.2L276.5-322.2z"/>
	</g>
</g>
<g>
	<g>
		<path d="M289.4-322.2c0,0.5,0,0.9,0,1.4c0,0.3,0,0.5,0.2,0.7c0.1,0.2,0.2,0.4,0.4,0.6c0.2,0.2,0.4,0.3,0.6,0.4
			c0.2,0.1,0.5,0.2,0.7,0.2c0.2,0,0.3,0,0.5-0.1c0.3-0.1,0.6-0.2,0.8-0.5c0.1-0.1,0.2-0.3,0.3-0.4c0.2-0.3,0.3-0.6,0.3-0.9
			c0-0.5,0-0.9,0-1.4c0-0.3,0-0.5-0.2-0.7c-0.1-0.2-0.2-0.4-0.4-0.6c-0.2-0.2-0.4-0.3-0.6-0.4c-0.2-0.1-0.5-0.2-0.7-0.2
			c-0.2,0-0.3,0-0.5,0.1c-0.3,0.1-0.6,0.2-0.8,0.5c-0.1,0.1-0.2,0.3-0.3,0.4C289.4-322.8,289.4-322.5,289.4-322.2L289.4-322.2z"/>
	</g>
</g>
<g>
	<g>
		<path d="M380.2-491.9c-14.9,14.1-15.9,37.1-8.7,55.3c1.8,4.5,4.2,8.5,8.2,11.4c3.8,2.8,8.4,4.3,12.9,5.4c9.4,2.4,19.4,3,29,1.1
			c9-1.8,17.5-5.8,24.1-12.2c6.2-5.9,10.8-13.8,12.4-22.2c1.8-9.8-1-19.2-5.2-28c-4-8.5-9.1-16.8-18.1-20.6c-4.6-1.9-9.5-2.7-14.5-3
			c-5-0.3-10-0.2-15,0.4c-5,0.6-9.9,1.7-14.6,3.4c-4.3,1.6-8.7,3.5-12,6.7c-1.6,1.5-2.7,3.3-3.5,5.4c-0.8,2.3,2.9,3.3,3.7,1
			c1.3-3.7,5-5.9,8.4-7.5c4.1-2,8.6-3.4,13.1-4.3c4.5-0.9,9.2-1.4,13.8-1.4c4.5,0,9.1,0.2,13.5,1.1c4.3,0.9,8.3,2.5,11.6,5.4
			c3.2,2.8,5.6,6.4,7.7,10.1c4.3,7.8,8.1,16.6,7.9,25.6c-0.4,16.3-13.2,30-28.1,34.8c-8.4,2.7-17.5,3.2-26.2,1.9
			c-4.4-0.7-8.7-1.7-12.9-3.3c-4.1-1.5-7.7-3.9-10.1-7.6c-2.4-3.8-3.8-8.3-4.9-12.6c-1.2-4.7-1.8-9.6-1.8-14.4
			c0.1-8.8,2.6-17.5,7.9-24.6c1.2-1.7,2.6-3.2,4.1-4.6C384.7-490.9,382-493.6,380.2-491.9L380.2-491.9z"/>
	</g>
</g>
<g>
	<g>
		<path d="M394.6-462.3c-2.3,0-4.6,0-6.9,0c-1,0-2,0.9-1.9,1.9c0,1,0.8,1.9,1.9,1.9c2.3,0,4.6,0,6.9,0c1,0,2-0.9,1.9-1.9
			C396.4-461.4,395.6-462.3,394.6-462.3L394.6-462.3z"/>
	</g>
</g>
<g>
	<g>
		<path d="M394.6-457.9c-2,0.1-4.1,0.2-6.1,0.3c-1,0.1-2,0.8-1.9,1.9c0,1,0.8,2,1.9,1.9c2-0.1,4.1-0.2,6.1-0.3c1-0.1,2-0.8,1.9-1.9
			C396.4-457,395.6-458,394.6-457.9L394.6-457.9z"/>
	</g>
</g>
<g>
	<g>
		<path d="M427.4-461.2c3.5,0.2,7.1-0.1,10.6-0.7c1-0.2,1.6-1.4,1.3-2.4c-0.3-1.1-1.3-1.5-2.4-1.3c-0.4,0.1-0.8,0.1-1.2,0.2
			c-0.1,0-0.7,0.1-0.4,0.1c-0.2,0-0.4,0-0.6,0.1c-0.8,0.1-1.6,0.2-2.4,0.2c-1.6,0.1-3.3,0.1-4.9,0c-1,0-2,0.9-1.9,1.9
			C425.5-462,426.3-461.3,427.4-461.2L427.4-461.2z"/>
	</g>
</g>
<g>
	<g>
		<path d="M426.8-456.4c4.1,0.7,8.2,0.9,12.3,0.5c1-0.1,2-0.8,1.9-1.9c0-1-0.8-2-1.9-1.9c-1.9,0.2-3.9,0.2-5.8,0.2
			c-1.9-0.1-3.7-0.3-5.5-0.6c-1-0.2-2.1,0.3-2.4,1.3C425.3-457.8,425.8-456.6,426.8-456.4L426.8-456.4z"/>
	</g>
</g>
<g>
	<g>
		<path d="M402.9-435.4c1.8,0,3.6-0.3,5.3-0.9c0.9-0.3,1.7-0.7,2.5-1.1c0.7-0.4,1.4-1,2.1-1.2c0.8-0.3,1.6,0,2.3,0.1
			c1,0.2,1.9,0.3,2.9,0.5c1.9,0.3,3.9,0.6,5.8,0.9c1,0.2,2.1-0.3,2.4-1.3c0.3-0.9-0.3-2.2-1.3-2.4c-2.1-0.3-4.1-0.7-6.2-1
			c-1.9-0.3-3.9-0.9-5.9-0.7c-1.8,0.2-3.1,1.4-4.7,2.1c-1.7,0.7-3.4,1.1-5.2,1.1C400.4-439.2,400.4-435.4,402.9-435.4L402.9-435.4z"
			/>
	</g>
</g>
<g>
	<g>
		<path d="M376-490.7c-3,4.1-5.1,8.8-6.1,13.8c-0.4,1.8,1.8,3.3,3.2,1.9c1.3-1.3,2.6-2.7,3.9-4c0.6-0.6,1.2-1.3,1.9-1.9
			c0.3-0.4,0.7-0.7,1-1.1c0.2-0.2,0.9-0.6,0.5-0.7c-0.3-0.1-0.6-0.2-1-0.3c0.5,0.2,0.8,1.5,1.1,2.1c0.5,1,0.9,2,1.4,2.9
			c0.3,0.7,1.4,1.1,2.2,0.9c1.4-0.5,2.4-1.3,3.2-2.5c0.4-0.6,1.4-2.8,2.4-2.6c0.6,0.1,1.3,1.4,1.7,1.9c0.8,0.9,1.8,1.6,3.1,1.6
			c1.4,0,2.4-0.9,3.2-2c0.1-0.1,0.6-0.7,0.3-0.6c-0.2,0.1-0.2-0.3,0.1,0.1c0.1,0.1,0.3,0.2,0.4,0.3c1.9,1.3,3.5,3.3,6,2.5
			c1.2-0.3,2-1.3,2.7-2.3c0.4-0.6,0.8-2.1,1.5-2.3c1.2-0.3,2.3,1.4,3.2,2c1.4,0.9,2.9,0.6,4-0.6c0.7-0.8,0.9-1.8,2.1-2
			c1.4-0.2,2.8,0.8,3.8,1.7c0.7,0.6,1.3,1.4,2.3,1.4c0.6,0,1.3-0.3,1.8-0.7c0.5-0.4,0.8-1,1-1.6c0.1-0.2,0.1-0.3,0.2-0.5
			c0-0.1,0-0.2,0.1-0.3c0.2-0.4,0.1-0.3-0.4,0.1c0,0.1,2.2,0.7,2.5,0.7c0.9,0.3,1.7,0.7,2.5,1.2c0.8,0.5,1.5,0.9,2.5,0.6
			c0.9-0.3,1.5-1,1.8-1.9c0.1-0.2,0.1-0.8,0.3-0.9c0.3-0.2,1,0.1,1.2,0.2c1.6,0.7,2.8,2,4.6,2.2c1.1,0.2,1.9-0.3,2.4-1.3
			c0.3-0.6,0.5-1.3,0.8-1.9c-0.8,0.4-1.6,0.9-2.4,1.3c1.3,0.2,2.6,0.6,3.9,1.2c0.9,0.4,2.1,0.3,2.6-0.7c0.5-0.8,0.2-2.2-0.7-2.6
			c-1.5-0.7-3.1-1.3-4.8-1.5c-1.1-0.2-1.9,0.3-2.4,1.3c-0.3,0.6-0.5,1.3-0.8,1.9c0.8-0.4,1.6-0.9,2.4-1.3c-1.3-0.2-2.2-1-3.3-1.7
			c-1-0.6-2.1-0.9-3.2-0.9c-1.1,0-2.2,0.4-3,1.1c-0.4,0.4-0.7,1-0.9,1.5c-0.1,0.2-0.1,0.4-0.1,0.5c-0.1,0.7-0.3,0.1,0.5-0.2
			c0.5,0.1,1,0.1,1.5,0.2c-2.1-1.3-4.9-2.8-7.5-2.9c-1.2-0.1-2.3,0.4-2.9,1.4c-0.3,0.4-0.4,0.8-0.6,1.2c-0.2,0.6-0.3,0.4,0.1,0.3
			c0.6,0.2,1.2,0.3,1.9,0.5c-1.7-1.6-3.5-3.2-5.9-3.6c-2.1-0.3-4.3,0.3-5.6,2c-0.2,0.3-0.7,0.8-0.7,1.1c-0.1,0.3-0.7,0.3,0.3,0.2
			c0.8-0.1,0.5,0,0.1-0.4c-0.7-0.9-2.1-1.6-3.1-2c-2.1-0.7-4.2,0.1-5.5,1.9c-0.4,0.6-0.7,1.3-1.2,2c-0.3,0.5-0.3,0.6-0.8,0.5
			c-1.2-0.5-2-1.8-3.2-2.4c-1.7-0.9-3.5-0.6-4.7,0.9c-0.2,0.2-0.8,0.9-0.8,1.1c0,0-0.1,0.1-0.1,0.2c-0.1,0.3,0.4-0.2,0.3,0
			c0,0-0.2-0.2-0.4-0.4c-0.3-0.3-0.5-0.6-0.8-1c-1.5-1.8-3.6-2.8-5.9-1.6c-1.1,0.6-1.9,1.5-2.6,2.5c-0.5,0.7-1,1.9-1.9,2.2
			c0.7,0.3,1.4,0.6,2.2,0.9c-1.1-2.4-2.9-8.6-6.7-6.1c-1.5,1-2.8,2.7-4,4.1c-1.4,1.4-2.7,2.8-4.1,4.2c1.1,0.6,2.1,1.2,3.2,1.9
			c1-4.7,2.9-9,5.8-12.9c0.6-0.8,0.1-2.1-0.7-2.6C377.7-492,376.6-491.6,376-490.7L376-490.7z"/>
	</g>
</g>
<g>
	<g>
		<path d="M384-465.6c4.4,0,8.8,0,13.3,0c1,0,2.2-0.2,3.1,0.1c1.1,0.3,1.3,1.8,1.5,2.8c0.6,2,1,4,1.4,6.1c0.2,1.1,0.3,2.1,0.4,3.2
			c0.1,1,0.3,2.2,0.1,3.2c-0.1,0.7-0.6,0.6-1.3,0.7c-0.6,0-1.1,0-1.7,0.1c-1.1,0-2.3,0.1-3.4,0.1c-2.2,0.1-4.4,0.2-6.6,0.3
			c-1.1,0-2.1,0.1-3.2,0.1c-0.8,0-1-0.1-1.4-0.8c-0.2-0.5-0.4-1.1-0.5-1.6c-1.4-4.6-2.2-9.5-2.2-14.3c0-0.8-1.3-0.8-1.3,0
			c0.1,5,0.8,10,2.3,14.8c0.3,0.8,0.5,1.8,1,2.5c0.7,0.8,1.6,0.7,2.6,0.7c2.7-0.1,5.4-0.2,8.1-0.4c1.3-0.1,2.5-0.1,3.8-0.2
			c1.2-0.1,2.6,0.1,3.7-0.2c0.7-0.2,1.1-0.8,1.1-1.5c0.1-1.3,0-2.7-0.2-3.9c-0.2-2.5-0.6-4.9-1.2-7.3c-0.3-1.2-0.6-2.3-1-3.5
			c-0.3-0.8-0.7-1.6-1.5-2c-1-0.5-2.4-0.3-3.5-0.3c-1.4,0-2.9,0-4.3,0c-3.1,0-6.3,0-9.4,0C383.2-466.9,383.2-465.6,384-465.6
			L384-465.6z"/>
	</g>
</g>
<g>
	<g>
		<path d="M404.8-457.5c4.2,0.2,8.5,0.2,12.7,0.1c0.8,0,0.8-1.3,0-1.3c-4.2,0.1-8.5,0.1-12.7-0.1C404-458.8,404-457.5,404.8-457.5
			L404.8-457.5z"/>
	</g>
</g>
<g>
	<g>
		<path d="M416.5-467.8c-0.2,3.1,0,6.1,0.5,9.2c0.2,1.4,0.5,2.8,0.9,4.2c0.3,1,0.6,2.2,1.5,2.8c0.9,0.6,2.1,0.7,3.2,0.8
			c1.7,0.2,3.3,0.3,5,0.3c3,0.1,6.1,0.1,9.1-0.1c1.5-0.1,3-0.2,4.5-0.4c1.4-0.2,3-0.3,4.4-0.7c0.8-0.2,1.3-0.7,1.4-1.6
			c0.2-1.4-0.1-3-0.3-4.4c-0.3-2.8-0.6-5.9-1.6-8.5c-0.9-2.3-3.4-2-5.5-2c-7.3,0-14.6,0.1-21.9,0.1c-0.8,0-0.8,1.3,0,1.3
			c5.3,0,10.6-0.1,15.9-0.1c2.6,0,5.2-0.1,7.8,0c1.4,0,2.3,0.4,2.6,1.8c0.3,1.3,0.6,2.6,0.8,3.9c0.2,1.3,0.4,2.5,0.5,3.8
			c0.1,0.6,0.1,1.3,0.2,1.9c0,0.5,0.3,1.5,0.1,2c-0.4,1.2-3,1.1-4.1,1.3c-1.3,0.2-2.7,0.3-4.1,0.4c-5.1,0.4-10.3,0.4-15.3-0.2
			c-0.6-0.1-1.3-0.1-1.8-0.3c-1-0.4-1.2-1.4-1.5-2.3c-0.4-1.3-0.7-2.6-0.9-3.9c-0.5-3-0.6-6-0.5-9.1
			C417.8-468.6,416.5-468.6,416.5-467.8L416.5-467.8z"/>
	</g>
</g>
<path class="st1" d="M445.5-144.8v5c0,0.3-0.1,0.6-0.2,0.8c-0.1,0.2-0.3,0.4-0.5,0.5c-0.2,0.1-0.4,0.2-0.7,0.3
	c-0.2,0.1-0.5,0.1-0.7,0.1s-0.5,0-0.7-0.1c-0.2-0.1-0.5-0.2-0.6-0.3c-0.2-0.1-0.3-0.3-0.5-0.5c-0.1-0.2-0.2-0.5-0.2-0.8v-5l-5.8-8
	c-0.3-0.3-0.3-0.7-0.2-1.1c0.1-0.4,0.4-0.8,0.8-1c0.2-0.1,0.4-0.2,0.7-0.3c0.2-0.1,0.5-0.1,0.7-0.1c0.2,0,0.4,0.1,0.6,0.2
	c0.2,0.1,0.4,0.2,0.5,0.4l4.8,6.8l4.7-6.7c0.3-0.4,0.6-0.6,1.1-0.6c0.5,0,0.9,0.1,1.4,0.3c0.2,0.1,0.4,0.2,0.5,0.4
	c0.2,0.2,0.3,0.3,0.4,0.5c0.1,0.2,0.1,0.4,0.1,0.6c0,0.2-0.1,0.4-0.3,0.6L445.5-144.8z"/>
<path d="M452.8-151.6c0-0.5,0.2-0.9,0.6-1.2c0.4-0.3,0.9-0.4,1.4-0.4c0.3,0,0.5,0,0.7,0.1c0.2,0.1,0.5,0.2,0.6,0.3
	c0.2,0.1,0.3,0.3,0.4,0.5c0.1,0.2,0.2,0.4,0.2,0.7v9.5c0,0.8,0.3,1.4,0.9,1.8s1.4,0.6,2.5,0.6c1,0,1.8-0.2,2.4-0.6
	c0.6-0.4,0.9-1,0.9-1.8v-9.5c0-0.5,0.2-0.9,0.6-1.2c0.4-0.3,0.9-0.4,1.4-0.4c0.3,0,0.5,0,0.7,0.1c0.2,0.1,0.4,0.2,0.6,0.3
	c0.2,0.1,0.3,0.3,0.5,0.5c0.1,0.2,0.2,0.4,0.2,0.7v9.5c0,0.9-0.2,1.7-0.6,2.3c-0.4,0.6-0.9,1.1-1.6,1.5c-0.7,0.4-1.4,0.7-2.3,0.9
	s-1.8,0.3-2.8,0.3c-1,0-2-0.1-2.9-0.3c-0.9-0.2-1.7-0.5-2.4-0.9c-0.7-0.4-1.2-0.9-1.6-1.5c-0.4-0.6-0.6-1.4-0.6-2.3V-151.6z"/>
<path class="st2" d="M484.6-147.5c-0.5,0.7-1.1,1.4-1.6,2.2s-1.1,1.6-1.6,2.2c-0.2,0.3-0.5,0.4-0.7,0.5c-0.3,0.1-0.5,0.1-0.8,0.1
	c-0.3,0-0.5,0-0.8-0.1c-0.3-0.1-0.5-0.3-0.7-0.5l-3.2-4.6v8.7c0,0.6-0.2,1-0.6,1.2c-0.4,0.3-0.9,0.4-1.4,0.4c-0.3,0-0.5,0-0.8-0.1
	c-0.2-0.1-0.5-0.2-0.6-0.3c-0.2-0.1-0.3-0.3-0.5-0.5s-0.2-0.4-0.2-0.7v-12.7c0-0.5,0.2-0.9,0.6-1.2c0.4-0.3,0.9-0.4,1.4-0.4
	c0.3,0,0.6,0,0.9,0.1c0.3,0,0.5,0.1,0.7,0.2c0.2,0.1,0.4,0.2,0.6,0.4c0.2,0.2,0.4,0.4,0.6,0.7l3.8,5.3l4-5.3
	c0.4-0.5,0.8-0.9,1.2-1.1c0.4-0.2,0.9-0.3,1.6-0.3c0.6,0,1,0.1,1.4,0.4c0.4,0.3,0.6,0.7,0.6,1.2v12.7c0,0.3-0.1,0.5-0.2,0.7
	s-0.3,0.4-0.5,0.5c-0.2,0.1-0.4,0.2-0.6,0.3c-0.2,0.1-0.5,0.1-0.7,0.1s-0.5,0-0.7-0.1c-0.2-0.1-0.5-0.2-0.6-0.3s-0.3-0.3-0.5-0.5
	s-0.2-0.4-0.2-0.7V-147.5z"/>
<path d="M492.3-151.6c0-0.5,0.2-0.9,0.6-1.2c0.4-0.3,0.9-0.4,1.5-0.4c0.3,0,0.5,0,0.7,0.1c0.2,0.1,0.5,0.2,0.6,0.3
	c0.2,0.1,0.3,0.3,0.4,0.5c0.1,0.2,0.2,0.4,0.2,0.7v12.7c0,0.3-0.1,0.5-0.2,0.7s-0.3,0.4-0.4,0.5c-0.2,0.1-0.4,0.2-0.6,0.3
	c-0.2,0.1-0.5,0.1-0.7,0.1c-0.3,0-0.5,0-0.8-0.1c-0.3-0.1-0.5-0.2-0.7-0.3c-0.2-0.1-0.4-0.3-0.5-0.5c-0.1-0.2-0.2-0.4-0.2-0.7
	V-151.6z"/>
<path d="M336.7-74.7v6.8c0,0.4-0.1,0.8-0.2,1.1s-0.3,0.5-0.5,0.7c-0.2,0.2-0.4,0.3-0.7,0.4c-0.2,0.1-0.5,0.1-0.7,0.1s-0.5,0-0.7-0.1
	c-0.2-0.1-0.5-0.2-0.6-0.4c-0.2-0.2-0.3-0.4-0.5-0.7c-0.1-0.3-0.2-0.7-0.2-1.1v-6.8l-5.8-10.9c-0.3-0.5-0.3-1-0.2-1.6
	c0.1-0.6,0.4-1,0.8-1.4c0.2-0.2,0.4-0.3,0.7-0.4c0.2-0.1,0.5-0.1,0.7-0.1c0.2,0,0.4,0.1,0.6,0.2c0.2,0.1,0.4,0.3,0.5,0.6l4.8,9.4
	l4.7-9.2c0.3-0.5,0.6-0.8,1.1-0.9c0.5,0,0.9,0.1,1.4,0.4c0.2,0.1,0.4,0.3,0.5,0.5c0.2,0.2,0.3,0.5,0.4,0.7c0.1,0.3,0.1,0.5,0.1,0.8
	c0,0.3-0.1,0.6-0.3,0.9L336.7-74.7z"/>
<path d="M382.9-80.2c-0.5,1-1.1,2.2-1.6,3.4c-0.6,1.2-1.1,2.4-1.6,3.4c-0.2,0.4-0.5,0.7-0.7,0.8s-0.5,0.2-0.8,0.2
	c-0.3,0-0.5-0.1-0.8-0.2c-0.3-0.1-0.5-0.4-0.7-0.8l-3.2-6.9v13.2c0,0.9-0.2,1.5-0.6,1.9c-0.4,0.4-0.9,0.6-1.4,0.6
	c-0.3,0-0.5,0-0.8-0.1c-0.2-0.1-0.5-0.2-0.6-0.4c-0.2-0.2-0.3-0.5-0.5-0.8c-0.1-0.3-0.2-0.7-0.2-1.1v-19.3c0-0.8,0.2-1.4,0.6-1.8
	c0.4-0.4,0.9-0.6,1.4-0.6c0.3,0,0.6,0,0.9,0.1c0.3,0.1,0.5,0.2,0.7,0.3c0.2,0.2,0.4,0.4,0.6,0.7c0.2,0.3,0.4,0.6,0.6,1.1l3.8,8.1
	l4-8.1c0.4-0.8,0.8-1.3,1.2-1.6c0.4-0.3,0.9-0.5,1.6-0.5c0.6,0,1,0.2,1.4,0.6s0.6,1,0.6,1.8v19.3c0,0.4-0.1,0.8-0.2,1.1
	c-0.1,0.3-0.3,0.6-0.5,0.8c-0.2,0.2-0.4,0.4-0.6,0.4c-0.2,0.1-0.5,0.1-0.7,0.1s-0.5,0-0.7-0.1c-0.2-0.1-0.5-0.2-0.6-0.4
	c-0.2-0.2-0.3-0.5-0.5-0.8c-0.1-0.3-0.2-0.7-0.2-1.1V-80.2z"/>
<text transform="matrix(1 0 0 1 354.2683 -173.8795)" style="font-family:'Cafe24Ssurround'; font-size:12px;">You</text>
<text transform="matrix(1 0 0 1 396.8806 -173.1449)" style="font-family:'Cafe24Ssurround'; font-size:12px;">Me</text>
<text transform="matrix(1 0 0 1 382.1259 -173.6961)" style="font-family:'GmarketSansBold-KSCpc-EUC-H'; font-size:12px;">&amp;</text>
<g>
	<g>
		<path d="M14.9,5c3.2,0,3.2-5,0-5C11.7,0,11.7,5,14.9,5L14.9,5z"/>
	</g>
	<g>
		<path d="M6.3,5.2c3.2,0,3.2-5,0-5C3.1,0.2,3.1,5.2,6.3,5.2L6.3,5.2z"/>
	</g>
	<g>
		<path d="M0.7,7.8c-1.9,4.6,0.2,10.1,4.4,12.6c4.3,2.5,11.1,2.1,13.7-2.6c1.5-2.7,2-6.1,1.8-9.1c-0.1-1.3-1.1-2.6-2.5-2.5
			c-1.3,0.1-2.6,1.1-2.5,2.5c0,0.7,0,1.5,0,2.2c-0.1,0.8,0,0.7-0.2,1.5c-0.1,0.6-0.3,1.2-0.5,1.8c-0.1,0.2-0.1,0.3-0.2,0.5
			c-0.1,0.3-0.1,0.3,0,0.1c-0.1,0.3-0.3,0.6-0.5,0.9c0.2-0.3-0.2,0.2-0.2,0.2c-0.2,0.2-0.2,0.2,0,0.1c-0.1,0.1-0.3,0.2-0.4,0.3
			c-0.1,0.1-0.9,0.4-0.5,0.3c-0.2,0.1-0.4,0.2-0.7,0.2c-0.3,0.1-0.6,0.1-0.9,0.2c0.6-0.1-0.3,0-0.4,0c-0.2,0-0.4,0-0.7,0
			c-0.1,0-1-0.1-0.4,0c-0.5-0.1-1-0.2-1.5-0.4c-0.3-0.1-0.3-0.1,0,0c-0.1-0.1-0.3-0.1-0.4-0.2c-0.3-0.1-0.5-0.3-0.8-0.5
			C6.8,15.5,7.4,16,7,15.7c-0.2-0.2-0.4-0.4-0.6-0.6c-0.1-0.1-0.2-0.2-0.3-0.3c0.2,0.2,0.2,0.2,0,0c-0.1-0.2-0.2-0.4-0.3-0.6
			c-0.1-0.1-0.4-0.9-0.2-0.4c-0.1-0.3-0.2-0.5-0.3-0.8c-0.1-0.2-0.1-0.4-0.2-0.6c0-0.3-0.1-0.3,0,0c0-0.1,0-0.3,0-0.4
			c0-0.3,0-0.5,0-0.8c0-0.1,0.1-0.9,0-0.3c0.1-0.6,0.3-1.1,0.5-1.7C6,7.9,5,6.3,3.8,6.1C2.3,5.7,1.2,6.5,0.7,7.8L0.7,7.8z"/>
	</g>
</g>
<g>
	<path d="M391.8-87.4c0,6.6,0,13.2,0,19.8c0,3.2,5,3.2,5,0c0-6.6,0-13.2,0-19.8C396.8-90.6,391.8-90.7,391.8-87.4L391.8-87.4z"/>
</g>
<g>
	<g>
		<path d="M146.2,36c3.2,0,3.2-5,0-5C143,31,143,36,146.2,36L146.2,36z"/>
	</g>
	<g>
		<path d="M137.7,36.3c3.2,0,3.2-5,0-5C134.4,31.3,134.4,36.3,137.7,36.3L137.7,36.3z"/>
	</g>
	<g>
		<path d="M132,38.8c-1.9,4.6,0.2,10.1,4.4,12.6c4.3,2.5,11.1,2.1,13.7-2.6c1.5-2.7,2-6.1,1.8-9.1c-0.1-1.3-1.1-2.6-2.5-2.5
			c-1.3,0.1-2.6,1.1-2.5,2.5c0,0.7,0,1.5,0,2.2c-0.1,0.8,0,0.7-0.2,1.5c-0.1,0.6-0.3,1.2-0.5,1.8c-0.1,0.2-0.1,0.3-0.2,0.5
			c-0.1,0.3-0.1,0.3,0,0.1c-0.1,0.3-0.3,0.6-0.5,0.9c0.2-0.3-0.2,0.2-0.2,0.2c-0.2,0.2-0.2,0.2,0,0.1c-0.1,0.1-0.3,0.2-0.4,0.3
			c-0.1,0.1-0.9,0.4-0.5,0.3c-0.2,0.1-0.4,0.2-0.7,0.2c-0.3,0.1-0.6,0.1-0.9,0.2c0.6-0.1-0.3,0-0.4,0c-0.2,0-0.4,0-0.7,0
			c-0.1,0-1-0.1-0.4,0c-0.5-0.1-1-0.2-1.5-0.4c-0.3-0.1-0.3-0.1,0,0c-0.1-0.1-0.3-0.1-0.4-0.2c-0.3-0.1-0.5-0.3-0.8-0.5
			c-0.4-0.3,0.2,0.2-0.2-0.1c-0.2-0.2-0.4-0.4-0.6-0.6c-0.1-0.1-0.2-0.2-0.3-0.3c0.2,0.2,0.2,0.2,0,0c-0.1-0.2-0.2-0.4-0.3-0.6
			c-0.1-0.1-0.4-0.9-0.2-0.4c-0.1-0.3-0.2-0.5-0.3-0.8c-0.1-0.2-0.1-0.4-0.2-0.6c0-0.3-0.1-0.3,0,0c0-0.1,0-0.3,0-0.4
			c0-0.3,0-0.5,0-0.8c0-0.1,0.1-0.9,0-0.3c0.1-0.6,0.3-1.1,0.5-1.7c0.5-1.2-0.5-2.8-1.7-3.1C133.6,36.8,132.6,37.5,132,38.8
			L132,38.8z"/>
	</g>
	<g>
		<path d="M110.8,25.2c1.6,2,3.2,4.2,4.7,6.4c0.8,1.2,1.5,2.5,2.6,3.4c1.3,1.1,3,1.6,4.6,1.1c1.6-0.5,2.4-1.9,3.3-3.2
			c0.7-1.1,1.4-2.2,2.1-3.3c1.4-2.4,2.5-5,3.4-7.6c0.4-1.2-0.5-2.8-1.7-3.1c-1.4-0.3-2.6,0.4-3.1,1.7c-0.7,2.1-1.5,3.8-2.5,5.8
			c-0.6,1-1.1,2-1.8,3c-0.3,0.4-0.6,0.9-0.9,1.3c-0.2,0.2-0.3,0.5-0.5,0.7c-0.1,0.2-0.1,0.2,0,0c-0.2,0.2-0.2,0.2,0.1,0
			c0.3-0.1,0.3-0.1,0.6-0.1c-0.3-0.1-0.3-0.1-0.1,0c-0.1,0-0.1-0.1-0.2-0.1c0.2,0.2-0.3-0.3-0.3-0.3c0.2,0.2-0.2-0.4-0.2-0.4
			c-0.7-1-1.3-1.9-2-2.9c-1.5-2.1-3-4.1-4.5-6c-0.8-1.1-2.7-0.9-3.5,0C109.8,22.7,110,24.1,110.8,25.2L110.8,25.2z"/>
	</g>
	<g>
		<path d="M118.6,34.7c1.2,5.6,2.1,11.3,2.7,17c0.1,1.3,1.1,2.5,2.5,2.5c1.3,0,2.6-1.1,2.5-2.5c-0.6-6.1-1.5-12.3-2.8-18.3
			c-0.3-1.3-1.8-2.1-3.1-1.7C119,32,118.3,33.4,118.6,34.7L118.6,34.7z"/>
	</g>
	<g>
		<path d="M156,32.3c0.6,5.3,0.7,10.6,0.4,15.9c-0.1,1.3,1.2,2.6,2.5,2.5c1.4-0.1,2.4-1.1,2.5-2.5c0.3-5.3,0.1-10.6-0.4-15.9
			c-0.1-1.3-1.1-2.6-2.5-2.5C157.2,29.9,155.8,30.9,156,32.3L156,32.3z"/>
	</g>
	<g>
		<path d="M156.7,32.8c0.8,2.2,1.9,4.3,3.3,6.2c1.5,2,3.6,5.1,6.5,4.2c1.2-0.4,2.3-1.2,3.2-2c0.8-0.6,1.5-1.4,2.2-2.2
			c0.8-0.9,1.4-1.9,2-2.9c0.2-0.4,0.4-0.9,0.7-1.4c0.1-0.2,0.2-0.4,0.3-0.5c0.1-0.1,0.1-0.1,0,0c0.2-0.2,0.2-0.2,0-0.1
			c-1.2-0.5-2.4-1-3.7-1.5c1.3,5.4,1.9,10.8,1.7,16.4c0,1.4,1.2,2.5,2.5,2.5c1.4,0,2.5-1.1,2.5-2.5c0.2-6-0.5-11.9-1.9-17.7
			c-0.4-1.5-2.4-2.4-3.7-1.5c-0.9,0.6-1.6,1.4-2.1,2.4c-0.4,0.8-0.7,1.5-1.2,2.3c-0.5,0.8-0.7,1.1-1.4,1.8c-0.6,0.7-1.2,1.1-1.7,1.5
			c-0.2,0.2-1,0.5-1.1,0.7c0,0,1.4,0,1.4,0.1c0-0.1-0.5-0.5-0.6-0.6c-0.3-0.3-0.6-0.7-0.9-1.1c-0.3-0.4-0.3-0.4-0.6-0.7
			c-1.1-1.5-2-3.2-2.6-4.7c-0.5-1.3-1.7-2.1-3.1-1.7C157.2,30,156.2,31.5,156.7,32.8L156.7,32.8z"/>
	</g>
	<g>
		<path d="M179.2,26.2c2.3,7.2,3.2,14.6,2.6,22.1c-0.1,1.3,1.2,2.5,2.5,2.5c1.4,0,2.4-1.1,2.5-2.5c0.6-7.9-0.3-15.9-2.8-23.4
			C183,21.9,178.2,23.2,179.2,26.2L179.2,26.2z"/>
	</g>
</g>
</svg>
